<svg xmlns="http://www.w3.org/2000/svg" height="20" viewBox="0 -960 960 960" width="20"><path d="m480-292.155 130.153-130.153L573-459.461l-67.001 67.001v-160.001h-51.998v160.001L387-459.461l-37.153 37.153L480-292.155ZM216-627.846v399.537q0 5.385 3.462 8.847 3.462 3.462 8.847 3.462h503.382q5.385 0 8.847-3.462 3.462-3.462 3.462-8.847v-399.537H216Zm15.386 463.845q-26.623 0-47.004-20.381-20.381-20.381-20.381-47.004v-439.382q0-12.846 4.866-24.5 4.865-11.653 14.596-21.499l60.154-60.924q9.846-9.846 21.057-14.077 11.21-4.231 23.789-4.231h382.305q12.579 0 23.982 4.231 11.402 4.231 21.248 14.077l60.539 61.693q9.731 9.846 14.596 21.692 4.866 11.846 4.866 24.692v438.228q0 26.623-20.381 47.004-20.381 20.381-47.004 20.381H231.386Zm-9.771-515.844H738l-57.616-59.924q-1.923-1.923-4.423-3.077Q673.46-744 670.768-744h-381.92q-2.693 0-5.193 1.154-2.5 1.154-4.424 3.077l-57.616 59.924ZM480-421.923Z"/></svg>